<?xml version="1.0" standalone="no"?>
<svg xmlns:xlink="http://www.w3.org/1999/xlink" id="wave" style="transform:rotate(0deg); transition: 0.3s" viewBox="0 0 1440 490" version="1.1" xmlns="http://www.w3.org/2000/svg"><defs><linearGradient id="sw-gradient-0" x1="0" x2="0" y1="1" y2="0"><stop stop-color="rgba(242, 150, 17, 1)" offset="0%"/><stop stop-color="rgba(242, 150, 17, 1)" offset="100%"/></linearGradient></defs><path style="transform:translate(0, 0px); opacity:1" fill="url(#sw-gradient-0)" d="M0,441L120,383.8C240,327,480,212,720,138.8C960,65,1200,33,1440,57.2C1680,82,1920,163,2160,204.2C2400,245,2640,245,2880,212.3C3120,180,3360,114,3600,147C3840,180,4080,310,4320,375.7C4560,441,4800,441,5040,408.3C5280,376,5520,310,5760,261.3C6000,212,6240,180,6480,138.8C6720,98,6960,49,7200,89.8C7440,131,7680,261,7920,334.8C8160,408,8400,425,8640,400.2C8880,376,9120,310,9360,245C9600,180,9840,114,10080,106.2C10320,98,10560,147,10800,187.8C11040,229,11280,261,11520,285.8C11760,310,12000,327,12240,334.8C12480,343,12720,343,12960,302.2C13200,261,13440,180,13680,147C13920,114,14160,131,14400,130.7C14640,131,14880,114,15120,155.2C15360,196,15600,294,15840,351.2C16080,408,16320,425,16560,400.2C16800,376,17040,310,17160,277.7L17280,245L17280,490L17160,490C17040,490,16800,490,16560,490C16320,490,16080,490,15840,490C15600,490,15360,490,15120,490C14880,490,14640,490,14400,490C14160,490,13920,490,13680,490C13440,490,13200,490,12960,490C12720,490,12480,490,12240,490C12000,490,11760,490,11520,490C11280,490,11040,490,10800,490C10560,490,10320,490,10080,490C9840,490,9600,490,9360,490C9120,490,8880,490,8640,490C8400,490,8160,490,7920,490C7680,490,7440,490,7200,490C6960,490,6720,490,6480,490C6240,490,6000,490,5760,490C5520,490,5280,490,5040,490C4800,490,4560,490,4320,490C4080,490,3840,490,3600,490C3360,490,3120,490,2880,490C2640,490,2400,490,2160,490C1920,490,1680,490,1440,490C1200,490,960,490,720,490C480,490,240,490,120,490L0,490Z"/></svg>